<?xml version="1.0" encoding="utf-8"?>
<!-- Generator: Adobe Illustrator 19.0.0, SVG Export Plug-In . SVG Version: 6.00 Build 0)  -->
<svg version="1.1" id="Layer_1" xmlns="http://www.w3.org/2000/svg" xmlns:xlink="http://www.w3.org/1999/xlink" x="0px" y="0px"
	 viewBox="0 0 800 800" style="enable-background:new 0 0 800 800;" xml:space="preserve">
<style type="text/css">
	.st0{fill:#374AC8;}
</style>
<g id="Blocks_1_">
	<path id="Upper_block_2_" class="st0" d="M104.7,463.2c0.5-4.9-4.3-8.4-8.2-9l-1.4-0.3l-12.6-1.1c-19.4-1.1-36.3,13.8-37.4,33.2
		L31.9,724.5c-1.1,19.5,13.8,36.1,33.3,37.2l421.9,23.2c19.5,1.1,36.1-13.9,37.2-33.3l13-237.2c1.1-20.1-14.5-37.5-34.6-38.6
		l-16.3-0.8h0c0,0-5.4-0.2-5.2-5.6l1.7-30.3c0.7-12.4-8.9-23.1-21.3-23.8l-72.4-4c-12.4-0.7-23.1,8.8-23.8,21.3l-1.7,30.1l-0.1,0.2
		c-0.4,5.4-5.8,4.9-5.8,4.9l0,0l-0.6,0l-122.6-6.2l0,0l0,0c-5.4-0.3-11.2,3.8-11.5,9.2l-0.3,6.9l-1.1,19.8
		c-0.6,11.6-10.6,20.5-22.2,19.8l-77-4.3c-11.6-0.6-20.5-10.6-19.9-22.2L104.7,463.2"/>
	<path id="Upper_block_1_" class="st0" d="M472.4,313.2c0.2,4.9,5.5,7.6,9.5,7.6l1.5,0l12.6-0.9c19.3-2,33.7-19.2,31.8-38.6
		l-24-237.8c-2-19.4-19.2-33.6-38.6-31.6L44.7,54.8c-19.4,2-33.5,19.3-31.6,38.7l24,236.3c2,20.1,20.1,34.8,40.2,32.8l16.2-1.6h0
		c0,0,5.4-0.7,6,4.6l3.1,30.2c1.3,12.4,12.3,21.4,24.7,20.2l72.2-7.3c12.4-1.3,21.4-12.3,20.2-24.7l-3-30l0-0.2
		c-0.4-5.4,5-5.7,5-5.7l0,0l0.6-0.1L344.3,335l0,0l0,0c5.4-0.5,10.4-5.5,9.9-10.9l-0.7-6.8l-2-19.7c-1.2-11.5,7.3-21.9,18.9-23
		l76.7-7.8c11.6-1.2,21.9,7.3,23.1,18.9L472.4,313.2"/>
</g>
</svg>
