<?xml version="1.0" encoding="utf-8"?>
<!-- Generator: Adobe Illustrator 19.0.0, SVG Export Plug-In . SVG Version: 6.00 Build 0)  -->
<svg version="1.1" id="Layer_1" xmlns="http://www.w3.org/2000/svg" xmlns:xlink="http://www.w3.org/1999/xlink" x="0px" y="0px"
	 viewBox="0 0 1000 1000" style="enable-background:new 0 0 1000 1000;" xml:space="preserve">
<style type="text/css">
	.st0{display:none;fill:#E06868;}
	.st1{fill:#332D2D;}
	.st2{fill:#FFFFFF;}
</style>
<path id="XMLID_2_" class="st0" d="M975.8,987H9.3c-5.1,0-9.3-4.2-9.3-9.3V134.1C0,61.1,59.2,1.9,132.2,1.9h843.6
	c5.1,0,9.3,4.2,9.3,9.3v966.5C985.1,982.8,980.9,987,975.8,987z"/>
<path id="XMLID_8_" class="st0" d="M0,977.7L0,11.2c0-5.1,4.2-9.3,9.3-9.3h843.6c73,0,132.2,59.2,132.2,132.2v843.6
	c0,5.1-4.2,9.3-9.3,9.3H9.3C4.2,987,0,982.8,0,977.7z"/>
<path id="XMLID_6_" class="st1" d="M7.4,862.6V137.4c0-71.8,58.2-130,130-130h725.1c71.8,0,130,58.2,130,130v725.1
	c0,71.8-58.2,130-130,130H137.4C65.6,992.6,7.4,934.4,7.4,862.6z"/>
<g id="XMLID_1_">
	<path id="XMLID_3_" class="st2" d="M213.1,859.3v-53.8c0-11,5.5-16.5,16.5-16.5h58.1V219.7h-57c-11,0-16.5-5.5-16.5-16.5v-56
		c0-11.7,5.5-17.6,16.5-17.6c87.8-3.7,171.1-5.5,250.1-5.5c79,0,142.1,15.2,189.2,45.5c47.2,30.4,70.8,73.7,70.8,130
		c0,41-12.6,76.6-37.8,107c-25.2,30.4-55,52.5-89.4,66.4c56.3,8.8,99.3,29.6,128.9,62.5c29.6,32.9,44.4,73.1,44.4,120.7
		c0,62.2-23,112.4-69.1,150.8c-46.1,38.4-107.1,60.2-183.2,65.3c-31.5,2.2-81.9,3.3-151.4,3.3H229.6
		C218.6,875.7,213.1,870.3,213.1,859.3z M410.6,213.1v226h41.7c108.2,0,162.4-37.7,162.4-113c0-42.4-13.2-71.9-39.5-88.3
		c-26.3-16.5-64-24.7-113-24.7H410.6z M410.6,530.2v261.1H460c64.3,0,114.3-10.2,149.7-30.7c35.5-20.5,53.2-55.9,53.2-106.4
		c0-82.6-57.8-124-173.3-124H410.6z"/>
</g>
</svg>
